<svg xmlns:xlink="http://www.w3.org/1999/xlink" xmlns="http://www.w3.org/2000/svg" aria-hidden="true" focusable="false" class="icon-search " width="100"  height="100" ><defs><symbol viewBox="0 0 100 100" id="icon-search"><path d="M98.652 84.297l-.605-.645-24.15-24.102A39.674 39.674 0 0 0 79.25 39.9C79.4 18.001 61.749.149 39.9 0h-.3C17.85 0 .15 17.601.001 39.399c-.149 21.899 17.5 39.8 39.399 39.951h.251c7.249 0 14.1-1.996 19.949-5.399l24.103 24.097.596.605c1.808 1.797 4.757 1.797 6.603 0l7.752-7.754c1.795-1.846 1.795-4.795-.002-6.602zM60.45 60.648c-5.599 5.504-12.95 8.551-20.799 8.551h-.2c-16.301-.098-29.45-13.447-29.35-29.748C10.201 23.301 23.45 10.1 39.6 10.1h.2c7.9.049 15.3 3.2 20.851 8.799 5.552 5.601 8.55 13.052 8.5 20.952-.047 7.849-3.149 15.247-8.701 20.797z"></path></symbol></defs><use xlink:href="#icon-search" href="#icon-search" fill="#FFFFFF"></use></svg>